<svg xmlns="http://www.w3.org/2000/svg" width="18" height="18" viewBox="0 0 18 18" fill="currentColor">
  <path d="M9.75 6C9.75 6.79565 9.43393 7.55871 8.87132 8.12132C8.30871 8.68393 7.54565 9 6.75 9C5.95435 9 5.19129 8.68393 4.62868 8.12132C4.06607 7.55871 3.75 6.79565 3.75 6C3.75 5.20435 4.06607 4.44129 4.62868 3.87868C5.19129 3.31607 5.95435 3 6.75 3C7.54565 3 8.30871 3.31607 8.87132 3.87868C9.43393 4.44129 9.75 5.20435 9.75 6ZM12.75 13.5V15H0.75V13.5C0.75 11.8425 3.435 10.5 6.75 10.5C10.065 10.5 12.75 11.8425 12.75 13.5ZM15.375 10.875V12H14.25V10.875H15.375ZM13.875 7.125H12.75V6.75C12.75 6.15326 12.9871 5.58097 13.409 5.15901C13.831 4.73705 14.4033 4.5 15 4.5C15.5967 4.5 16.169 4.73705 16.591 5.15901C17.0129 5.58097 17.25 6.15326 17.25 6.75C17.25 7.4775 16.875 8.16 16.2825 8.5575L16.0575 8.7C15.63 9 15.375 9.4575 15.375 9.975V10.125H14.25V9.975C14.25 9.0825 14.7 8.25 15.4425 7.7625L15.66 7.62C15.9525 7.425 16.125 7.1025 16.125 6.75C16.125 6.45163 16.0065 6.16548 15.7955 5.9545C15.5845 5.74353 15.2984 5.625 15 5.625C14.7016 5.625 14.4155 5.74353 14.2045 5.9545C13.9935 6.16548 13.875 6.45163 13.875 6.75V7.125Z" fill="#592C82"/>
</svg>