<svg xmlns="http://www.w3.org/2000/svg" width="18" height="18" viewBox="0 0 18 18" fill="currentColor">
  <path d="M15 16.5L12.105 15.3375C12.63 14.19 13.005 13.005 13.2375 11.7975L15 16.5ZM5.895 15.3375L3 16.5L4.7625 11.7975C4.995 13.005 5.37 14.19 5.895 15.3375ZM9 1.5C9 1.5 12.75 3 12.75 9C12.75 11.325 12.1875 13.3125 11.4975 14.8725C11.25 15.4125 10.7175 15.75 10.125 15.75H7.875C7.2825 15.75 6.75 15.4125 6.5025 14.8725C5.82 13.3125 5.25 11.325 5.25 9C5.25 3 9 1.5 9 1.5ZM9 9C9.825 9 10.5 8.325 10.5 7.5C10.5 6.675 9.825 6 9 6C8.175 6 7.5 6.675 7.5 7.5C7.5 8.325 8.175 9 9 9Z" fill="currentColor"/>
</svg>