<svg xmlns="http://www.w3.org/2000/svg" width="18" height="18" viewBox="0 0 18 18" fill="currentColor">
  <path d="M15.75 3.975L14.4 2.625C13.6238 3.057 12.645 3.3 11.7 3.3C10.755 3.3 9.7695 3.05025 9 2.625C8.2305 3.05025 7.245 3.3 6.3 3.3C5.355 3.3 4.37625 3.057 3.6 2.625L2.25 3.975C2.25 3.975 3.6 5.325 3.6 6.675C3.6 8.025 2.25 10.725 2.25 12.075C2.25 14.775 9 16.125 9 16.125C9 16.125 15.75 14.775 15.75 12.075C15.75 10.725 14.4 8.025 14.4 6.675C14.4 5.325 15.75 3.975 15.75 3.975ZM11.0588 12.3788L8.97975 11.1233L6.9075 12.3788L7.461 10.0163L5.625 8.43675L8.0415 8.2275L8.97975 6L9.92475 8.22075L12.3413 8.43L10.5052 10.0095L11.0588 12.3788Z" fill="currentColor"/>
</svg>