<svg xmlns="http://www.w3.org/2000/svg" width="18" height="19" viewBox="0 0 18 19" fill="currentColor">
  <path d="M14.955 13.955C14.97 13.8425 14.9775 13.7375 14.9775 13.625C14.9775 13.5125 14.97 13.4 14.955 13.2875L15.6825 12.74C15.75 12.6875 15.7725 12.5975 15.7275 12.5225L15.0375 11.3525C15 11.2775 14.895 11.2475 14.82 11.2775L13.9575 11.615C13.7775 11.4875 13.59 11.375 13.3725 11.285L13.245 10.3925C13.23 10.31 13.155 10.25 13.0725 10.25H11.685C11.595 10.25 11.52 10.31 11.505 10.3925L11.3775 11.285C11.16 11.375 10.9725 11.4875 10.7925 11.615L9.93 11.2775C9.855 11.2475 9.75 11.2775 9.72 11.3525L9.0225 12.5225C8.9775 12.5975 9 12.6875 9.0675 12.74L9.795 13.2875C9.7875 13.4 9.7725 13.5125 9.7725 13.625C9.7725 13.7375 9.7875 13.8425 9.795 13.955L9.0675 14.51C9 14.5625 8.9775 14.6525 9.0225 14.7275L9.72 15.8975C9.75 15.9725 9.855 15.995 9.93 15.9725L10.7925 15.6275C10.9725 15.7625 11.16 15.875 11.3775 15.965L11.505 16.8575C11.52 16.94 11.595 17 11.685 17H13.0725C13.155 17 13.23 16.94 13.245 16.8575L13.3725 15.965C13.59 15.875 13.7775 15.7625 13.9575 15.6275L14.82 15.9725C14.895 15.995 15 15.9725 15.0375 15.8975L15.7275 14.7275C15.7725 14.6525 15.75 14.5625 15.6825 14.51L14.955 13.955ZM12.375 14.75C11.7525 14.75 11.25 14.2475 11.25 13.625C11.25 13.0025 11.7525 12.5 12.375 12.5C12.9975 12.5 13.5 13.0025 13.5 13.625C13.5 14.2475 12.9975 14.75 12.375 14.75ZM6.75 2C8.1 2.45 9 3.725 9 5.15C9 6.65 8.1 7.925 6.75 8.375V16.625C6.75 16.85 6.6 17 6.375 17H4.875C4.65 17 4.5 16.85 4.5 16.55V8.3C3.15 7.85 2.25 6.575 2.25 5.15C2.25 3.725 3.15 2.45 4.5 2V4.775H6.75V2Z" fill="#592C82"/>
</svg>